
<svg width="512px" height="234px" viewBox="0 0 512 234" version="1.1" xmlns="http://www.w3.org/2000/svg" xmlns:xlink="http://www.w3.org/1999/xlink">
    <g id="Page-1" stroke="none" stroke-width="1" fill="none" fill-rule="evenodd">
        <g id="mill_logo" fill="#231F20" fill-rule="nonzero">
            <path d="M65.3653,104.25 C42.6325,104.25 28.0235,119.504 28.0235,143.152 L28.0235,233.991 L0,233.991 L0,139.705 C0,103.909 26.4533,74.6642 61.3035,74.6642 C82.7733,74.6642 104.243,85.857 117.009,102.987 C129.775,85.8911 151.245,74.6642 172.715,74.6642 C207.258,74.6642 233.711,104.216 233.711,139.705 L233.711,233.991 L205.687,233.991 L205.687,143.459 C205.687,119.504 191.078,104.25 168.346,104.25 C145.613,104.25 131.004,119.504 131.004,143.152 L131.004,233.991 L102.673,233.991 L102.673,143.459 C102.707,119.504 88.0981,104.25 65.3653,104.25 Z" id="Path"></path>
            <path d="M291.021,0 C303.479,0 311.569,8.08748 311.569,20.5429 C311.569,32.6912 303.479,40.4715 291.021,40.4715 C278.869,40.4715 271.087,32.6912 271.087,20.5429 C271.087,8.08748 278.869,0 291.021,0 Z M314.675,233.991 L328.67,233.991 L328.67,207.852 L320.888,207.852 C310.921,207.852 305.323,202.255 305.323,192.291 L305.323,78.4178 L277.333,78.4178 L277.333,197.58 C277.333,219.693 291.942,233.991 314.675,233.991 Z" id="Shape"></path>
            <path d="M398.711,40.1303 L398.711,192.291 C398.711,202.255 404.309,207.852 414.276,207.852 L422.059,207.852 L422.059,233.991 L408.064,233.991 C385.331,233.991 370.688,219.693 370.688,197.58 L370.688,45.4196 C370.688,35.4552 365.09,29.8588 355.123,29.8588 L347.341,29.8588 L347.341,3.71954 L361.335,3.71954 C384.068,3.71954 398.711,18.0518 398.711,40.1303 Z" id="Path"></path>
            <path d="M488.653,40.1303 L488.653,192.291 C488.653,202.255 494.251,207.852 504.218,207.852 L512,207.852 L512,233.991 L498.005,233.991 C475.273,233.991 460.663,219.693 460.663,197.58 L460.663,45.4196 C460.663,35.4552 455.066,29.8588 445.099,29.8588 L437.316,29.8588 L437.316,3.71954 L451.311,3.71954 C474.044,3.71954 488.653,18.0518 488.653,40.1303 Z" id="Path"></path>
        </g>
    </g>
</svg>
